<svg xmlns="http://www.w3.org/2000/svg" width="14" height="17" fill="none" viewBox="0 0 14 17">
  <path fill="#212529" d="M7 .087a6.786 6.786 0 0 0-2.686.536c-.851.36-1.625.89-2.276 1.56A7.177 7.177 0 0 0 .52 4.528 7.34 7.34 0 0 0 0 7.29c-.016.96.162 1.915.523 2.8A6.927 6.927 0 0 0 2.1 12.436c.1.103 4.1 3.808 4.2 3.91a1.03 1.03 0 0 0 1.3 0c.1-.102 4.2-3.807 4.2-3.91a6.927 6.927 0 0 0 1.577-2.345 7.09 7.09 0 0 0 .523-2.8 7.191 7.191 0 0 0-.471-2.763 7.035 7.035 0 0 0-1.487-2.352A6.804 6.804 0 0 0 9.678.612 6.644 6.644 0 0 0 7 .087Zm0 9.261a1.96 1.96 0 0 1-1.111-.347 2.047 2.047 0 0 1-.737-.923 2.114 2.114 0 0 1-.114-1.19c.078-.398.268-.765.548-1.053a1.98 1.98 0 0 1 1.024-.563c.388-.08.79-.039 1.155.117.366.156.678.42.898.758a2.1 2.1 0 0 1-.25 2.597A1.978 1.978 0 0 1 7 9.348Z"/>
</svg>
