<svg xmlns="http://www.w3.org/2000/svg" width="24" height="26" fill="none" viewBox="0 0 24 26">
  <path fill="#212529" d="M16.145 9.402a.96.96 0 1 0 0-1.92.96.96 0 0 0 0 1.92ZM12 16.813a3.92 3.92 0 0 1-2.222-.694 4.093 4.093 0 0 1-1.474-1.847 4.227 4.227 0 0 1-.227-2.378 4.155 4.155 0 0 1 1.095-2.108A3.966 3.966 0 0 1 11.22 8.66a3.895 3.895 0 0 1 2.31.234c.732.312 1.356.84 1.796 1.516.44.677.674 1.473.674 2.287a4.177 4.177 0 0 1-1.172 2.91A3.944 3.944 0 0 1 12 16.814Zm0-6.174c-.396 0-.782.12-1.111.347a2.047 2.047 0 0 0-.737.923 2.13 2.13 0 0 0-.114 1.19c.078.399.268.765.548 1.053.28.288.636.484 1.024.564.388.079.79.038 1.155-.118a2.01 2.01 0 0 0 .898-.758 2.1 2.1 0 0 0-.249-2.598A1.972 1.972 0 0 0 12 10.639Z"/>
  <path fill="#212529" d="M16 20.93H8a4.16 4.16 0 0 1-2.77-1.266A4.396 4.396 0 0 1 4 16.813V8.581a4.395 4.395 0 0 1 1.23-2.852A4.16 4.16 0 0 1 8 4.465h8a4.16 4.16 0 0 1 2.77 1.264A4.396 4.396 0 0 1 20 8.581v8.232a4.396 4.396 0 0 1-1.23 2.851A4.16 4.16 0 0 1 16 20.93ZM8 6.522a2.24 2.24 0 0 0-1.35.668A2.359 2.359 0 0 0 6 8.581v8.232c.05.528.278 1.022.643 1.397.364.375.844.609 1.357.661h8a2.24 2.24 0 0 0 1.35-.668c.364-.374.593-.864.65-1.39V8.581a2.359 2.359 0 0 0-.65-1.39A2.24 2.24 0 0 0 16 6.523H8Z"/>
</svg>
