<svg xmlns="http://www.w3.org/2000/svg" width="577" height="371" fill="none" viewBox="0 0 577 371">
  <path fill="url(#a)" fill-rule="evenodd" d="M180.233 236.194H12.015c-5.53 0-10.012 3.629-10.012 8.107v100.535c0 4.477 4.483 8.107 10.012 8.107h168.218c5.53 0 10.013-3.63 10.013-8.107V244.301c0-4.478-4.483-8.107-10.013-8.107Zm-168.218-1.622C5.38 234.572 0 238.928 0 244.301v100.535c0 5.373 5.38 9.729 12.015 9.729h168.218c6.636 0 12.015-4.356 12.015-9.729V244.301c0-5.373-5.379-9.729-12.015-9.729H12.015Z" clip-rule="evenodd"/>
  <path fill="url(#b)" d="M15.544 253.975c0-1.786 1.566-3.234 3.497-3.234H148.85c1.932 0 3.498 1.448 3.498 3.234s-1.566 3.234-3.498 3.234H19.041c-1.931 0-3.497-1.448-3.497-3.234Z"/>
  <path fill="url(#c)" d="M15.544 270.142c0-1.786 1.566-3.234 3.497-3.234h41.974c1.932 0 3.498 1.448 3.498 3.234s-1.566 3.234-3.498 3.234H19.041c-1.931 0-3.497-1.448-3.497-3.234Z"/>
  <path fill="url(#d)" d="M70.735 270.142c0-1.786 1.566-3.234 3.498-3.234h16.323c1.931 0 3.497 1.448 3.497 3.234s-1.566 3.234-3.497 3.234H74.232c-1.931 0-3.497-1.448-3.497-3.234Z"/>
  <path fill="url(#e)" d="M15.544 334.817c0-1.786 1.566-3.234 3.497-3.234h41.974c1.932 0 3.498 1.448 3.498 3.234s-1.566 3.234-3.498 3.234H19.041c-1.931 0-3.497-1.448-3.497-3.234Z"/>
  <path fill="url(#f)" d="M70.735 334.817c0-1.786 1.566-3.234 3.498-3.234h16.323c1.931 0 3.497 1.448 3.497 3.234s-1.566 3.234-3.497 3.234H74.232c-1.931 0-3.497-1.448-3.497-3.234Z"/>
  <path fill="url(#g)" d="M43.528 302.48c0-1.785 1.566-3.233 3.498-3.233h11.659c1.932 0 3.498 1.448 3.498 3.233 0 1.786-1.566 3.234-3.498 3.234h-11.66c-1.931 0-3.497-1.448-3.497-3.234Z"/>
  <path fill="url(#h)" d="M69.179 302.48c0-1.785 1.566-3.233 3.498-3.233h49.746c1.932 0 3.498 1.448 3.498 3.233 0 1.786-1.566 3.234-3.498 3.234H72.677c-1.932 0-3.498-1.448-3.498-3.234Z"/>
  <path fill="url(#i)" d="M15.544 302.48c0-1.785 1.566-3.233 3.497-3.233h16.323c1.932 0 3.498 1.448 3.498 3.233 0 1.786-1.566 3.234-3.498 3.234H19.041c-1.931 0-3.497-1.448-3.497-3.234Z"/>
  <path fill="url(#j)" d="M15.544 286.311c0-1.786 1.566-3.233 3.497-3.233h56.743c1.932 0 3.498 1.447 3.498 3.233s-1.566 3.234-3.498 3.234H19.04c-1.931 0-3.497-1.448-3.497-3.234Z"/>
  <path fill="url(#k)" d="M84.722 286.311c0-1.786 1.566-3.233 3.498-3.233h26.428c1.932 0 3.498 1.447 3.498 3.233s-1.566 3.234-3.498 3.234H88.22c-1.932 0-3.498-1.448-3.498-3.234Z"/>
  <path fill="url(#l)" d="M15.544 318.65c0-1.786 1.566-3.234 3.497-3.234h56.743c1.932 0 3.498 1.448 3.498 3.234s-1.566 3.233-3.498 3.233H19.04c-1.931 0-3.497-1.447-3.497-3.233Z"/>
  <path fill="url(#m)" d="M80.023 15.36C80.023 6.877 87.46 0 96.637 0h433.73c9.176 0 16.614 6.877 16.614 15.36v295.078c0 8.483-7.438 15.36-16.614 15.36H96.637c-9.176 0-16.614-6.877-16.614-15.36V15.36Z"/>
  <path fill="url(#n)" fill-rule="evenodd" d="M530.125 1.617H96.395c-8.21 0-14.865 6.153-14.865 13.743v295.078c0 7.59 6.656 13.743 14.866 13.743h433.729c8.21 0 14.866-6.153 14.866-13.743V15.36c0-7.59-6.656-13.743-14.866-13.743ZM96.395 0C87.22 0 79.782 6.877 79.782 15.36v295.078c0 8.483 7.439 15.36 16.615 15.36h433.729c9.176 0 16.615-6.877 16.615-15.36V15.36c0-8.483-7.439-15.36-16.615-15.36H96.395Z" clip-rule="evenodd"/>
  <path fill="url(#o)" d="M90.273 30.316c0-9.152 8.026-16.572 17.926-16.572h403.124c9.9 0 17.926 7.42 17.926 16.572 0 9.153-8.026 16.573-17.926 16.573H108.199c-9.9 0-17.926-7.42-17.926-16.573Z"/>
  <path fill="url(#p)" fill-rule="evenodd" d="M516.912 65.678H348.695c-5.53 0-10.013 3.63-10.013 8.107V174.32c0 4.477 4.483 8.107 10.013 8.107h168.217c5.53 0 10.013-3.63 10.013-8.107V73.785c0-4.477-4.483-8.107-10.013-8.107Zm-168.217-1.622c-6.636 0-12.016 4.356-12.016 9.73V174.32c0 5.373 5.38 9.729 12.016 9.729h168.217c6.636 0 12.016-4.356 12.016-9.729V73.785c0-5.373-5.38-9.729-12.016-9.729H348.695Z" clip-rule="evenodd"/>
  <path fill="url(#q)" d="M352.224 83.46c0-1.787 1.566-3.235 3.498-3.235H485.53c1.932 0 3.498 1.448 3.498 3.234s-1.566 3.234-3.498 3.234H355.722c-1.932 0-3.498-1.448-3.498-3.234Z"/>
  <path fill="url(#r)" d="M352.224 99.626c0-1.785 1.566-3.233 3.498-3.233h41.974c1.932 0 3.498 1.448 3.498 3.233 0 1.786-1.566 3.234-3.498 3.234h-41.974c-1.932 0-3.498-1.448-3.498-3.234Z"/>
  <path fill="url(#s)" d="M407.407 99.626c0-1.785 1.566-3.233 3.497-3.233h16.324c1.931 0 3.497 1.448 3.497 3.233 0 1.786-1.566 3.234-3.497 3.234h-16.324c-1.931 0-3.497-1.448-3.497-3.234Z"/>
  <path fill="url(#t)" d="M352.224 164.301c0-1.786 1.566-3.234 3.498-3.234h41.974c1.932 0 3.498 1.448 3.498 3.234s-1.566 3.234-3.498 3.234h-41.974c-1.932 0-3.498-1.448-3.498-3.234Z"/>
  <path fill="url(#u)" d="M407.407 164.301c0-1.786 1.566-3.234 3.497-3.234h16.324c1.931 0 3.497 1.448 3.497 3.234s-1.566 3.234-3.497 3.234h-16.324c-1.931 0-3.497-1.448-3.497-3.234Z"/>
  <path fill="url(#v)" d="M380.207 131.965c0-1.786 1.566-3.234 3.498-3.234h11.659c1.932 0 3.498 1.448 3.498 3.234s-1.566 3.233-3.498 3.233h-11.659c-1.932 0-3.498-1.447-3.498-3.233Z"/>
  <path fill="url(#w)" d="M405.86 131.965c0-1.786 1.566-3.234 3.497-3.234h49.747c1.932 0 3.498 1.448 3.498 3.234s-1.566 3.233-3.498 3.233h-49.747c-1.931 0-3.497-1.447-3.497-3.233Z"/>
  <path fill="url(#x)" d="M352.224 131.965c0-1.786 1.566-3.234 3.498-3.234h16.323c1.932 0 3.498 1.448 3.498 3.234s-1.566 3.233-3.498 3.233h-16.323c-1.932 0-3.498-1.447-3.498-3.233Z"/>
  <path fill="url(#y)" d="M352.224 115.796c0-1.786 1.566-3.234 3.498-3.234h56.743c1.931 0 3.497 1.448 3.497 3.234 0 1.785-1.566 3.233-3.497 3.233h-56.743c-1.932 0-3.498-1.448-3.498-3.233Z"/>
  <path fill="url(#z)" d="M421.403 115.796c0-1.786 1.566-3.234 3.498-3.234h26.428c1.932 0 3.498 1.448 3.498 3.234 0 1.785-1.566 3.233-3.498 3.233h-26.428c-1.932 0-3.498-1.448-3.498-3.233Z"/>
  <path fill="url(#A)" d="M352.224 148.134c0-1.786 1.566-3.234 3.498-3.234h56.743c1.931 0 3.497 1.448 3.497 3.234s-1.566 3.234-3.497 3.234h-56.743c-1.932 0-3.498-1.448-3.498-3.234Z"/>
  <path fill="#FED280" d="M462.32 30.498c0 3.062-2.686 5.544-5.998 5.544-3.312 0-5.998-2.482-5.998-5.544 0-3.061 2.686-5.543 5.998-5.543 3.312 0 5.998 2.482 5.998 5.544Z"/>
  <path fill="#8CFEE3" fill-opacity=".9" d="M483.316 30.498c0 3.062-2.685 5.544-5.998 5.544-3.312 0-5.998-2.482-5.998-5.544 0-3.061 2.686-5.543 5.998-5.543 3.313 0 5.998 2.482 5.998 5.544Z"/>
  <path fill="#FF8DA9" fill-opacity=".9" d="M504.306 30.498c0 3.062-2.685 5.544-5.998 5.544-3.312 0-5.997-2.482-5.997-5.544 0-3.061 2.685-5.543 5.997-5.543 3.313 0 5.998 2.482 5.998 5.544Z"/>
  <rect width="121.985" height="48.719" x="185.414" y="74" fill="url(#B)" rx="6"/>
  <rect width="56.601" height="48.719" x="185" y="127.922" fill="url(#C)" rx="6"/>
  <rect width="61" height="28" x="117" y="148.922" fill="url(#D)" rx="6"/>
  <rect width="56.601" height="48.719" x="246.484" y="127.922" fill="url(#E)" rx="6"/>
  <path fill="url(#F)" d="M101 77c0-7.18 5.82-13 13-13h195.525c7.179 0 13 5.82 13 13v93.993c0 7.179-5.821 13-13 13H114c-7.18 0-13-5.821-13-13V77Z"/>
  <rect width="428.411" height="106.46" x="101" y="195" fill="url(#G)" rx="13"/>
  <path fill="#FDC800" d="M466 282.763C466 270.191 476.194 260 488.769 260h65.462C566.806 260 577 270.191 577 282.763v65.444c0 12.571-10.194 22.763-22.769 22.763h-65.462c-12.575 0-22.769-10.192-22.769-22.763v-65.444Z"/>
  <path fill="#1C1E53" d="M494.466 312.614c4.605-.858 6.907-3.227 6.907-7.108 0-1.715-.226-4.649-.677-8.801-.452-4.423-.677-7.627-.677-9.613 0-3.249.902-5.732 2.708-7.447 1.851-1.715 4.311-2.572 7.381-2.572h3.928v5.348h-2.777c-1.76 0-3.069.406-3.927 1.218-.858.768-1.287 2.054-1.287 3.859 0 1.309.09 2.934.271 4.874.181 1.896.293 3.182.339 3.859.451 4.333.677 7.492.677 9.478 0 2.392-.61 4.4-1.829 6.025-1.173 1.579-3.002 2.64-5.484 3.182v.135c2.482.541 4.311 1.625 5.484 3.249 1.219 1.625 1.829 3.633 1.829 6.025 0 1.986-.226 5.145-.677 9.478-.046.677-.158 1.986-.339 3.926-.181 1.896-.271 3.498-.271 4.807 0 1.805.429 3.091 1.287 3.859.858.812 2.167 1.218 3.927 1.218h2.777v5.348h-3.928c-3.07 0-5.53-.857-7.381-2.572-1.806-1.715-2.708-4.197-2.708-7.447 0-1.986.225-5.19.677-9.613.451-4.152.677-7.086.677-8.801 0-3.881-2.302-6.25-6.907-7.108v-4.806Zm54.899 4.806c-4.605.858-6.907 3.227-6.907 7.109 0 1.714.226 4.648.677 8.8.452 4.423.677 7.627.677 9.613 0 3.25-.925 5.732-2.776 7.447-1.806 1.715-4.244 2.572-7.313 2.572h-3.928v-5.348h2.777c1.76 0 3.069-.406 3.927-1.218.858-.768 1.287-2.054 1.287-3.859 0-1.309-.091-2.911-.271-4.807-.181-1.94-.294-3.249-.339-3.926-.451-4.333-.677-7.492-.677-9.478 0-2.392.587-4.4 1.761-6.025 1.219-1.624 3.069-2.708 5.552-3.249v-.135c-2.483-.542-4.333-1.603-5.552-3.182-1.174-1.625-1.761-3.633-1.761-6.025 0-1.986.226-5.145.677-9.478.045-.677.158-1.963.339-3.859.18-1.94.271-3.565.271-4.874 0-1.805-.429-3.091-1.287-3.858-.858-.813-2.167-1.219-3.927-1.219h-2.777v-5.348h3.928c3.069 0 5.507.857 7.313 2.572 1.851 1.715 2.776 4.198 2.776 7.447 0 1.986-.225 5.19-.677 9.613-.451 4.152-.677 7.086-.677 8.801 0 3.881 2.302 6.25 6.907 7.108v4.806Z"/>
  <path fill="#fff" fill-opacity=".17" d="M117 78.376A5.376 5.376 0 0 1 122.376 73h50.18a5.377 5.377 0 0 1 5.377 5.376v57.349a5.377 5.377 0 0 1-5.377 5.376h-50.18a5.376 5.376 0 0 1-5.376-5.376V78.376Z"/>
  <defs>
    <linearGradient id="a" x1="96.124" x2="164.692" y1="234.572" y2="542.738" gradientUnits="userSpaceOnUse">
      <stop stop-color="#fff" stop-opacity=".17"/>
      <stop offset="1" stop-opacity="0"/>
    </linearGradient>
    <linearGradient id="b" x1="83.945" x2="91.34" y1="250.741" y2="290.124" gradientUnits="userSpaceOnUse">
      <stop stop-color="#fff" stop-opacity=".56"/>
      <stop offset="1" stop-color="#C4C4C4" stop-opacity="0"/>
    </linearGradient>
    <linearGradient id="c" x1="40.028" x2="56.8" y1="266.908" y2="298.883" gradientUnits="userSpaceOnUse">
      <stop stop-color="#F9C746" stop-opacity=".52"/>
      <stop offset="1" stop-color="#C4C4C4" stop-opacity="0"/>
    </linearGradient>
    <linearGradient id="d" x1="82.394" x2="102.685" y1="266.908" y2="285.329" gradientUnits="userSpaceOnUse">
      <stop stop-color="#84EBE5" stop-opacity=".62"/>
      <stop offset="1" stop-color="#C4C4C4" stop-opacity="0"/>
    </linearGradient>
    <linearGradient id="e" x1="40.028" x2="56.8" y1="331.583" y2="363.557" gradientUnits="userSpaceOnUse">
      <stop stop-color="#fff" stop-opacity=".56"/>
      <stop offset="1" stop-color="#C4C4C4" stop-opacity="0"/>
    </linearGradient>
    <linearGradient id="f" x1="82.394" x2="102.685" y1="331.583" y2="350.004" gradientUnits="userSpaceOnUse">
      <stop stop-color="#F47D9E"/>
      <stop offset="1" stop-color="#C4C4C4" stop-opacity="0"/>
    </linearGradient>
    <linearGradient id="g" x1="52.855" x2="72.241" y1="299.247" y2="313.326" gradientUnits="userSpaceOnUse">
      <stop stop-color="#F2C87D"/>
      <stop offset="1" stop-color="#C4C4C4" stop-opacity="0"/>
    </linearGradient>
    <linearGradient id="h" x1="97.55" x2="112.867" y1="299.247" y2="333.084" gradientUnits="userSpaceOnUse">
      <stop stop-color="#fff" stop-opacity=".62"/>
      <stop offset="1" stop-color="#C4C4C4" stop-opacity="0"/>
    </linearGradient>
    <linearGradient id="i" x1="21.762" x2="57.436" y1="297.63" y2="303.079" gradientUnits="userSpaceOnUse">
      <stop stop-color="#F37D9D"/>
      <stop offset="1" stop-color="#C4C4C4" stop-opacity="0"/>
    </linearGradient>
    <linearGradient id="j" x1="47.413" x2="61.547" y1="283.078" y2="318.153" gradientUnits="userSpaceOnUse">
      <stop stop-color="#fff" stop-opacity=".58"/>
      <stop offset="1" stop-color="#C4C4C4" stop-opacity="0"/>
    </linearGradient>
    <linearGradient id="k" x1="101.434" x2="121.133" y1="283.078" y2="308.711" gradientUnits="userSpaceOnUse">
      <stop stop-color="#fff" stop-opacity=".45"/>
      <stop offset="1" stop-color="#C4C4C4" stop-opacity="0"/>
    </linearGradient>
    <linearGradient id="l" x1="47.413" x2="61.547" y1="315.416" y2="350.491" gradientUnits="userSpaceOnUse">
      <stop stop-color="#70D1E7"/>
      <stop offset="1" stop-color="#C4C4C4" stop-opacity="0"/>
    </linearGradient>
    <linearGradient id="m" x1="313.502" x2="417.183" y1="0" y2="477.127" gradientUnits="userSpaceOnUse">
      <stop stop-color="#fff" stop-opacity=".16"/>
      <stop offset="1" stop-color="#C4C4C4" stop-opacity="0"/>
    </linearGradient>
    <linearGradient id="n" x1="313.261" x2="625.788" y1="0" y2="243.877" gradientUnits="userSpaceOnUse">
      <stop stop-color="#fff" stop-opacity=".17"/>
      <stop offset="1" stop-opacity="0"/>
    </linearGradient>
    <linearGradient id="o" x1="309.761" x2="367.251" y1="13.744" y2="205.456" gradientUnits="userSpaceOnUse">
      <stop stop-color="#fff" stop-opacity=".15"/>
      <stop offset="1" stop-color="#C4C4C4" stop-opacity="0"/>
    </linearGradient>
    <linearGradient id="p" x1="432.803" x2="501.371" y1="64.056" y2="372.222" gradientUnits="userSpaceOnUse">
      <stop stop-color="#fff" stop-opacity=".17"/>
      <stop offset="1" stop-opacity="0"/>
    </linearGradient>
    <linearGradient id="q" x1="420.626" x2="428.021" y1="80.225" y2="119.608" gradientUnits="userSpaceOnUse">
      <stop stop-color="#fff" stop-opacity=".56"/>
      <stop offset="1" stop-color="#C4C4C4" stop-opacity="0"/>
    </linearGradient>
    <linearGradient id="r" x1="376.709" x2="393.48" y1="96.393" y2="128.367" gradientUnits="userSpaceOnUse">
      <stop stop-color="#F9C746" stop-opacity=".52"/>
      <stop offset="1" stop-color="#C4C4C4" stop-opacity="0"/>
    </linearGradient>
    <linearGradient id="s" x1="419.066" x2="439.357" y1="96.393" y2="114.814" gradientUnits="userSpaceOnUse">
      <stop stop-color="#84EBE5" stop-opacity=".62"/>
      <stop offset="1" stop-color="#C4C4C4" stop-opacity="0"/>
    </linearGradient>
    <linearGradient id="t" x1="376.709" x2="393.48" y1="161.067" y2="193.042" gradientUnits="userSpaceOnUse">
      <stop stop-color="#fff" stop-opacity=".56"/>
      <stop offset="1" stop-color="#C4C4C4" stop-opacity="0"/>
    </linearGradient>
    <linearGradient id="u" x1="419.066" x2="439.357" y1="161.067" y2="179.488" gradientUnits="userSpaceOnUse">
      <stop stop-color="#F47D9E"/>
      <stop offset="1" stop-color="#C4C4C4" stop-opacity="0"/>
    </linearGradient>
    <linearGradient id="v" x1="389.534" x2="408.92" y1="128.731" y2="142.81" gradientUnits="userSpaceOnUse">
      <stop stop-color="#F2C87D"/>
      <stop offset="1" stop-color="#C4C4C4" stop-opacity="0"/>
    </linearGradient>
    <linearGradient id="w" x1="434.231" x2="449.548" y1="128.731" y2="162.568" gradientUnits="userSpaceOnUse">
      <stop stop-color="#fff" stop-opacity=".62"/>
      <stop offset="1" stop-color="#C4C4C4" stop-opacity="0"/>
    </linearGradient>
    <linearGradient id="x" x1="358.443" x2="394.117" y1="127.114" y2="132.563" gradientUnits="userSpaceOnUse">
      <stop stop-color="#F37D9D"/>
      <stop offset="1" stop-color="#C4C4C4" stop-opacity="0"/>
    </linearGradient>
    <linearGradient id="y" x1="384.093" x2="398.228" y1="112.562" y2="147.637" gradientUnits="userSpaceOnUse">
      <stop stop-color="#fff" stop-opacity=".58"/>
      <stop offset="1" stop-color="#C4C4C4" stop-opacity="0"/>
    </linearGradient>
    <linearGradient id="z" x1="438.115" x2="457.814" y1="112.562" y2="138.195" gradientUnits="userSpaceOnUse">
      <stop stop-color="#fff" stop-opacity=".45"/>
      <stop offset="1" stop-color="#C4C4C4" stop-opacity="0"/>
    </linearGradient>
    <linearGradient id="A" x1="384.093" x2="398.228" y1="144.9" y2="179.975" gradientUnits="userSpaceOnUse">
      <stop stop-color="#70D1E7"/>
      <stop offset="1" stop-color="#C4C4C4" stop-opacity="0"/>
    </linearGradient>
    <linearGradient id="B" x1="218.235" x2="235.603" y1="54.117" y2="148.238" gradientUnits="userSpaceOnUse">
      <stop stop-color="#fff" stop-opacity=".31"/>
      <stop offset="1" stop-color="#fff" stop-opacity="0"/>
    </linearGradient>
    <linearGradient id="C" x1="200.229" x2="233.648" y1="108.039" y2="192.074" gradientUnits="userSpaceOnUse">
      <stop stop-color="#fff" stop-opacity=".31"/>
      <stop offset="1" stop-color="#fff" stop-opacity="0"/>
    </linearGradient>
    <linearGradient id="D" x1="133.413" x2="144.764" y1="137.495" y2="191.023" gradientUnits="userSpaceOnUse">
      <stop stop-color="#fff" stop-opacity=".31"/>
      <stop offset="1" stop-color="#fff" stop-opacity="0"/>
    </linearGradient>
    <linearGradient id="E" x1="261.713" x2="295.132" y1="108.039" y2="192.074" gradientUnits="userSpaceOnUse">
      <stop stop-color="#fff" stop-opacity=".31"/>
      <stop offset="1" stop-color="#fff" stop-opacity="0"/>
    </linearGradient>
    <linearGradient id="F" x1="160.603" x2="217.057" y1="15.029" y2="240.61" gradientUnits="userSpaceOnUse">
      <stop stop-color="#fff" stop-opacity=".31"/>
      <stop offset="1" stop-color="#fff" stop-opacity="0"/>
    </linearGradient>
    <linearGradient id="G" x1="160.529" x2="59.256" y1="-55.812" y2="300.805" gradientUnits="userSpaceOnUse">
      <stop stop-color="#fff" stop-opacity=".31"/>
      <stop offset="1" stop-color="#fff" stop-opacity="0"/>
    </linearGradient>
  </defs>
</svg>
