<svg xmlns="http://www.w3.org/2000/svg" width="23" height="23" fill="none" viewBox="0 0 23 23">
  <path fill="#212529" d="M4.847 5.325a15.62 15.62 0 0 1 3.954-1.243c.17.307.37.722.507 1.051a14.543 14.543 0 0 1 4.383 0c.152-.36.323-.71.512-1.051 1.369.237 2.7.656 3.957 1.246 2.503 3.781 3.181 7.469 2.842 11.104a15.807 15.807 0 0 1-4.85 2.485c-.393-.54-.74-1.113-1.04-1.71a10.245 10.245 0 0 0 1.637-.797 8.107 8.107 0 0 1-.4-.317c-3.155 1.474-6.58 1.474-9.697 0-.131.109-.266.215-.4.317.518.312 1.067.58 1.638.797a12.01 12.01 0 0 1-1.039 1.71 15.773 15.773 0 0 1-4.853-2.486c-.398-4.213.68-7.867 2.85-11.106Zm9.837 8.871c.946 0 1.723-.883 1.723-1.96 0-1.076-.76-1.962-1.723-1.962-.963 0-1.74.884-1.723 1.962-.002 1.076.76 1.96 1.723 1.96Zm-6.368 0c.947 0 1.723-.883 1.723-1.96 0-1.076-.76-1.962-1.723-1.962-.963 0-1.739.884-1.723 1.962 0 1.076.76 1.96 1.723 1.96Z"/>
</svg>
