<svg xmlns="http://www.w3.org/2000/svg" width="17" height="17" fill="none" viewBox="0 0 17 17">
  <g clip-path="url(#a)">
    <path fill="#212529" fill-rule="evenodd" d="M8.5 0C3.805 0 0 3.812 0 8.515a8.514 8.514 0 0 0 5.813 8.078c.425.078.58-.184.58-.41 0-.202-.007-.738-.011-1.448-2.365.514-2.864-1.142-2.864-1.142-.386-.984-.943-1.246-.943-1.246-.772-.527.058-.516.058-.516.853.059 1.302.877 1.302.877.758 1.3 1.99.925 2.473.707.078-.55.298-.925.54-1.137-1.886-.215-3.871-.946-3.871-4.209 0-.929.332-1.69.875-2.285-.088-.215-.38-1.08.083-2.252 0 0 .714-.23 2.337.872A8.13 8.13 0 0 1 8.5 4.118c.723.003 1.45.097 2.128.286 1.623-1.102 2.335-.873 2.335-.873.464 1.172.172 2.038.085 2.253.544.595.874 1.356.874 2.285 0 3.271-1.988 3.991-3.88 4.202.304.262.575.782.575 1.577 0 1.137-.01 2.056-.01 2.335 0 .227.153.492.585.41A8.516 8.516 0 0 0 17 8.514C17 3.812 13.194 0 8.5 0Z" clip-rule="evenodd"/>
  </g>
  <defs>
    <clipPath id="a">
      <path fill="#fff" d="M0 0h17v17H0z"/>
    </clipPath>
  </defs>
</svg>
