<svg xmlns="http://www.w3.org/2000/svg" width="17" height="17" fill="none" viewBox="0 0 17 17">
  <g clip-path="url(#a)">
    <path fill="#212529" d="M15.742 0H1.255C.561 0 0 .548 0 1.225v14.547C0 16.449.561 17 1.255 17h14.487c.694 0 1.258-.55 1.258-1.225V1.225C17 .548 16.436 0 15.742 0ZM5.044 14.487H2.52V6.372h2.524v8.115Zm-1.262-9.22a1.462 1.462 0 1 1-.005-2.924 1.462 1.462 0 0 1 .005 2.923Zm10.704 9.22h-2.52v-3.945c0-.94-.016-2.151-1.311-2.151-1.312 0-1.51 1.026-1.51 2.085v4.01H6.626V6.373h2.418V7.48h.033c.335-.638 1.159-1.312 2.384-1.312 2.553 0 3.024 1.68 3.024 3.865v4.453Z"/>
  </g>
  <defs>
    <clipPath id="a">
      <path fill="#fff" d="M0 0h17v17H0z"/>
    </clipPath>
  </defs>
</svg>
